<?xml version="1.0" encoding="UTF-8"?>
<!DOCTYPE svg PUBLIC "-//W3C//DTD SVG 1.1//EN" "http://www.w3.org/Graphics/SVG/1.1/DTD/svg11.dtd">
<svg xmlns="http://www.w3.org/2000/svg" version="1.1" width="753px" height="253px" style="shape-rendering:geometricPrecision; text-rendering:geometricPrecision; image-rendering:optimizeQuality; fill-rule:evenodd; clip-rule:evenodd" xmlns:xlink="http://www.w3.org/1999/xlink">
<g><path style="opacity:1" fill="#bea5f5" d="M 145.5,45.5 C 149.846,45.3343 154.179,45.501 158.5,46C 153.833,49.6667 149.167,53.3333 144.5,57C 141.5,57.6667 138.5,57.6667 135.5,57C 139.416,53.5903 142.749,49.757 145.5,45.5 Z"/></g>
<g><path style="opacity:1" fill="#bda5f6" d="M 180.5,47.5 C 186.176,47.3339 191.843,47.5006 197.5,48C 195.557,54.3806 194.39,60.8806 194,67.5C 194.561,68.0219 195.228,68.3552 196,68.5C 207.227,61.7923 216.227,64.1256 223,75.5C 227.937,90.6883 223.437,102.188 209.5,110C 203.024,112.199 196.691,111.865 190.5,109C 189.55,106.09 187.55,104.923 184.5,105.5C 184.167,107.5 183.833,109.5 183.5,111.5C 178.125,111.828 172.792,111.495 167.5,110.5C 171.963,89.5197 176.296,68.5197 180.5,47.5 Z M 195.5,77.5 C 205.655,76.8297 209.489,81.4964 207,91.5C 204.419,98.1873 199.586,100.354 192.5,98C 191.667,97.1667 190.833,96.3333 190,95.5C 189.333,91.5 189.333,87.5 190,83.5C 191.36,80.9774 193.193,78.9774 195.5,77.5 Z"/></g>
<g><path style="opacity:1" fill="#bea5f6" d="M 341.5,47.5 C 347.167,47.5 352.833,47.5 358.5,47.5C 354.913,68.6009 350.746,89.6009 346,110.5C 340.928,111.471 335.762,111.805 330.5,111.5C 330.5,109.833 330.5,108.167 330.5,106.5C 312.789,115.98 301.789,110.814 297.5,91C 299.415,75.9401 307.748,67.1068 322.5,64.5C 327.362,64.5073 331.362,66.3406 334.5,70C 335.448,70.4828 336.448,70.6495 337.5,70.5C 339.312,62.9177 340.645,55.251 341.5,47.5 Z M 321.5,77.5 C 330.096,75.792 334.43,79.292 334.5,88C 333.399,97.0565 328.399,100.39 319.5,98C 318,97.1667 316.833,96 316,94.5C 314.376,87.5401 316.21,81.8734 321.5,77.5 Z"/></g>
<g><path style="opacity:1" fill="#bea5f6" d="M 71.5,50.5 C 81.5726,49.5646 91.2392,51.0646 100.5,55C 98.5289,59.1192 96.1956,62.9525 93.5,66.5C 86.4044,63.7306 79.0711,62.8972 71.5,64C 67.1279,66.195 66.4612,69.195 69.5,73C 75.1212,74.822 80.7879,76.4886 86.5,78C 100.081,85.806 101.081,95.1393 89.5,106C 74.063,114.307 58.3964,114.64 42.5,107C 44.7942,102.912 46.9609,98.7453 49,94.5C 58.3047,99.5799 67.9713,100.58 78,97.5C 78.7581,95.2305 78.5914,93.0639 77.5,91C 70.0546,88.6388 62.7213,85.9721 55.5,83C 48.5587,76.6329 47.7254,69.4662 53,61.5C 58.1007,55.8729 64.2673,52.2062 71.5,50.5 Z"/></g>
<g><path style="opacity:1" fill="#bea5f6" d="M 253.5,64.5 C 256.518,64.3354 259.518,64.502 262.5,65C 266.231,66.8654 269.897,68.6987 273.5,70.5C 273.5,68.8333 273.5,67.1667 273.5,65.5C 279.167,65.5 284.833,65.5 290.5,65.5C 287.99,80.5491 285.157,95.5491 282,110.5C 276.928,111.471 271.762,111.805 266.5,111.5C 266.5,109.833 266.5,108.167 266.5,106.5C 263.325,108.13 259.991,109.63 256.5,111C 242.373,111.878 234.706,105.211 233.5,91C 234.371,77.6477 241.037,68.8144 253.5,64.5 Z M 256.5,77.5 C 259.518,77.3354 262.518,77.502 265.5,78C 267.872,79.3753 269.539,81.3753 270.5,84C 271.313,95.8597 265.979,100.526 254.5,98C 250.404,93.4309 249.571,88.2642 252,82.5C 253.025,80.313 254.525,78.6464 256.5,77.5 Z"/></g>
<g><path style="opacity:1" fill="#bea5f6" d="M 385.5,64.5 C 394.696,63.5048 402.862,65.8381 410,71.5C 418.283,84.1436 416.783,95.6436 405.5,106C 394.543,112.508 383.21,113.175 371.5,108C 359.888,98.0155 358.721,86.8488 368,74.5C 373.133,69.7522 378.967,66.4189 385.5,64.5 Z M 385.5,77.5 C 393.489,75.8176 397.823,78.9842 398.5,87C 398.001,96.7528 393.001,100.419 383.5,98C 379.207,93.5273 378.374,88.3607 381,82.5C 382.025,80.313 383.525,78.6464 385.5,77.5 Z"/></g>
<g><path style="opacity:1" fill="#bea5f6" d="M 125.5,64.5 C 128.518,64.3354 131.518,64.502 134.5,65C 138.33,66.702 141.996,68.5354 145.5,70.5C 145.421,69.0695 145.754,67.7362 146.5,66.5C 152.137,65.3368 157.804,65.1701 163.5,66C 160.212,80.7695 157.046,95.6028 154,110.5C 148.928,111.471 143.762,111.805 138.5,111.5C 138.5,109.833 138.5,108.167 138.5,106.5C 135.438,107.692 132.438,109.192 129.5,111C 114.94,112.369 106.94,105.702 105.5,91C 106.789,77.9038 113.456,69.0705 125.5,64.5 Z M 129.5,77.5 C 140.446,76.6596 144.279,81.6596 141,92.5C 140.315,95.0573 138.815,96.8906 136.5,98C 125.207,100.285 121.04,95.7849 124,84.5C 124.938,81.4025 126.772,79.0691 129.5,77.5 Z"/></g>
<g><path style="opacity:1" fill="#bda5f6" d="M 603.5,64.5 C 606.5,64.5 609.5,64.5 612.5,64.5C 615.85,79.9013 619.517,95.2347 623.5,110.5C 620.833,111.833 618.167,111.833 615.5,110.5C 614.449,107.243 613.782,103.91 613.5,100.5C 604.827,100.334 596.16,100.5 587.5,101C 585.375,104.082 583.375,107.249 581.5,110.5C 578.833,111.833 576.167,111.833 573.5,110.5C 583.51,95.1383 593.51,79.8049 603.5,64.5 Z M 603.5,73.5 C 604.833,73.5 606.167,73.5 607.5,73.5C 608.984,80.4336 609.984,87.4336 610.5,94.5C 604.5,94.5 598.5,94.5 592.5,94.5C 595.891,87.3849 599.558,80.3849 603.5,73.5 Z"/></g>
<g><path style="opacity:1" fill="#bea5f6" d="M 538.5,64.5 C 547.582,64.0863 556.582,64.5863 565.5,66C 573.285,69.3277 576.118,75.161 574,83.5C 572.033,89.3005 568.199,93.3005 562.5,95.5C 562.167,96.3333 561.833,97.1667 561.5,98C 562.828,102.489 564.828,106.656 567.5,110.5C 564.833,111.833 562.167,111.833 559.5,110.5C 557.04,106.414 554.707,102.247 552.5,98C 548.179,97.501 543.846,97.3343 539.5,97.5C 538.83,101.851 537.996,106.184 537,110.5C 534.205,111.783 531.372,111.783 528.5,110.5C 531.711,95.1092 535.044,79.7759 538.5,64.5 Z M 545.5,70.5 C 548.137,71.1513 550.637,71.1513 553,70.5C 563.567,69.7255 567.567,74.3922 565,84.5C 563.833,87 562,88.8333 559.5,90C 553.509,90.4995 547.509,90.6662 541.5,90.5C 542.454,83.7279 543.788,77.0612 545.5,70.5 Z"/></g>
<g><path style="opacity:1" fill="#bea5f6" d="M 439.5,64.5 C 447.507,64.3336 455.507,64.5003 463.5,65C 475.823,69.1229 478.99,76.9562 473,88.5C 469.138,93.0361 464.305,95.8694 458.5,97C 452.509,97.4995 446.509,97.6662 440.5,97.5C 440.221,102.227 439.554,106.893 438.5,111.5C 435.833,111.5 433.167,111.5 430.5,111.5C 433.117,95.7507 436.117,80.084 439.5,64.5 Z M 446.5,70.5 C 452.232,70.2832 457.899,70.7832 463.5,72C 468.216,76.692 468.716,81.8586 465,87.5C 463.829,88.8932 462.329,89.7265 460.5,90C 454.509,90.4995 448.509,90.6662 442.5,90.5C 444.15,83.898 445.484,77.2314 446.5,70.5 Z"/></g>
<g><path style="opacity:1" fill="#bda5f5" d="M 501.5,64.5 C 504.5,64.5 507.5,64.5 510.5,64.5C 514.326,80.1368 517.993,95.8035 521.5,111.5C 518.881,111.768 516.381,111.435 514,110.5C 512.722,107.279 511.889,103.946 511.5,100.5C 502.827,100.334 494.16,100.5 485.5,101C 483.413,104.508 481.08,107.842 478.5,111C 476.167,111.667 473.833,111.667 471.5,111C 481.723,95.6168 491.723,80.1168 501.5,64.5 Z M 502.5,73.5 C 503.5,73.5 504.5,73.5 505.5,73.5C 506.992,80.4671 508.325,87.4671 509.5,94.5C 503.5,94.5 497.5,94.5 491.5,94.5C 494.346,87.1442 498.013,80.1442 502.5,73.5 Z"/></g>
<g><path style="opacity:1" fill="#e6963a" d="M 214.5,120.5 C 230.5,120.5 246.5,120.5 262.5,120.5C 252.008,121.33 241.341,121.83 230.5,122C 262.498,122.5 294.498,122.667 326.5,122.5C 334.544,121.704 342.544,121.704 350.5,122.5C 364.541,123.149 378.208,122.482 391.5,120.5C 398.167,120.5 404.833,120.5 411.5,120.5C 418.321,121.329 425.321,121.829 432.5,122C 431.833,122.333 431.167,122.667 430.5,123C 420.172,123.5 409.839,123.666 399.5,123.5C 291.167,123.5 182.833,123.5 74.5,123.5C 65.1429,123.832 55.8096,123.498 46.5,122.5C 47.8333,122.167 49.1667,121.833 50.5,121.5C 90.2477,122.091 130.414,122.424 171,122.5C 185.833,122.333 200.667,122.167 215.5,122C 214.944,121.617 214.611,121.117 214.5,120.5 Z"/></g>
<g><path style="opacity:1" fill="#e99634" d="M 390.5,120.5 C 390.833,120.5 391.167,120.5 391.5,120.5C 378.208,122.482 364.541,123.149 350.5,122.5C 363.833,121.833 377.167,121.167 390.5,120.5 Z"/></g>
<g><path style="opacity:1" fill="#e8943b" d="M 310.5,120.5 C 337.167,120.5 363.833,120.5 390.5,120.5C 377.167,121.167 363.833,121.833 350.5,122.5C 342.544,121.704 334.544,121.704 326.5,122.5C 321.167,121.833 315.833,121.167 310.5,120.5 Z"/></g>
<g><path style="opacity:1" fill="#e89637" d="M 262.5,120.5 C 278.5,120.5 294.5,120.5 310.5,120.5C 315.833,121.167 321.167,121.833 326.5,122.5C 294.498,122.667 262.498,122.5 230.5,122C 241.341,121.83 252.008,121.33 262.5,120.5 Z"/></g>
<g><path style="opacity:1" fill="#e9943b" d="M 74.5,123.5 C 182.833,123.5 291.167,123.5 399.5,123.5C 380.671,124.332 361.671,124.832 342.5,125C 361.5,125.333 380.5,125.667 399.5,126C 354.501,126.5 309.501,126.667 264.5,126.5C 289.997,125.668 315.663,125.168 341.5,125C 252.332,124.833 163.332,124.333 74.5,123.5 Z"/></g>
<g><path style="opacity:1" fill="#e9943b" d="M 442.5,120.5 C 481.167,120.5 519.833,120.5 558.5,120.5C 528.608,121.024 498.608,121.857 468.5,123C 554.5,123.333 640.5,123.667 726.5,124C 638.332,124.167 550.332,124.667 462.5,125.5C 460.167,125.5 457.833,125.5 455.5,125.5C 457.066,124.515 459.399,123.681 462.5,123C 455.671,122.27 449.004,121.437 442.5,120.5 Z"/></g>
<g><path style="opacity:1" fill="#e79639" d="M 558.5,120.5 C 574.5,120.5 590.5,120.5 606.5,120.5C 596.008,121.33 585.341,121.83 574.5,122C 606.5,122.667 638.5,122.667 670.5,122C 664.984,121.827 659.651,121.327 654.5,120.5C 679.836,120.333 705.169,120.5 730.5,121C 733.635,122.266 735.302,124.599 735.5,128C 734.257,136.057 732.59,143.89 730.5,151.5C 730.567,146.3 729.567,141.3 727.5,136.5C 727.978,142.466 727.478,148.466 726,154.5C 725.943,152.09 724.776,150.756 722.5,150.5C 722.762,149.022 722.429,147.689 721.5,146.5C 710.588,141.381 699.588,141.214 688.5,146C 685.308,148.028 682.641,150.528 680.5,153.5C 679.521,154.765 678.521,156.099 677.5,157.5C 676.817,157.137 676.15,156.804 675.5,156.5C 672.164,149.154 666.498,144.654 658.5,143C 639.679,140.689 627.679,148.522 622.5,166.5C 621.269,162.202 621.935,158.035 624.5,154C 623.151,153.228 622.318,152.061 622,150.5C 621.333,155.833 620.667,161.167 620,166.5C 619.667,165.5 619.333,164.5 619,163.5C 618.722,164.416 618.222,165.082 617.5,165.5C 619.639,148.206 611.972,140.706 594.5,143C 591.898,143.977 589.398,145.144 587,146.5C 586.517,145.552 586.351,144.552 586.5,143.5C 581.5,143.5 576.5,143.5 571.5,143.5C 571.634,145.292 571.301,146.958 570.5,148.5C 569.167,148.5 567.833,148.5 566.5,148.5C 567.341,146.621 567.675,144.621 567.5,142.5C 561.564,142.091 556.064,143.424 551,146.5C 550.517,145.552 550.351,144.552 550.5,143.5C 545.5,143.5 540.5,143.5 535.5,143.5C 534.118,153.744 532.118,163.744 529.5,173.5C 529.631,172.761 529.464,172.094 529,171.5C 528.808,173.577 528.308,175.577 527.5,177.5C 527.167,176.667 526.833,175.833 526.5,175C 527.123,171.519 527.623,168.019 528,164.5C 528.333,166.167 528.667,167.833 529,169.5C 529.881,165.458 529.048,161.792 526.5,158.5C 526.167,159 525.833,159.5 525.5,160C 526.459,162.12 526.626,164.287 526,166.5C 525.583,165.244 524.75,164.577 523.5,164.5C 524.63,157.518 525.63,150.518 526.5,143.5C 521.456,143.173 516.456,143.506 511.5,144.5C 511,145.5 510.5,146.5 510,147.5C 495.734,139.113 483.401,141.446 473,154.5C 470.972,158.432 469.472,162.432 468.5,166.5C 468.307,162.551 467.807,162.551 467,166.5C 466.155,163.87 466.655,161.536 468.5,159.5C 467.167,156.833 467.167,154.167 468.5,151.5C 468.167,151.167 467.833,150.833 467.5,150.5C 466.632,152.796 465.298,153.463 463.5,152.5C 461.154,147.329 457.154,144.162 451.5,143C 444.826,141.664 438.659,142.831 433,146.5C 432.517,145.552 432.351,144.552 432.5,143.5C 433.873,143.657 435.207,143.49 436.5,143C 435.027,142.29 434.36,141.124 434.5,139.5C 435.538,137.428 437.038,135.761 439,134.5C 441.823,135.983 444.657,137.483 447.5,139C 458.583,140.739 463.583,136.239 462.5,125.5C 550.332,124.667 638.332,124.167 726.5,124C 640.5,123.667 554.5,123.333 468.5,123C 498.608,121.857 528.608,121.024 558.5,120.5 Z"/></g>
<g><path style="opacity:1" fill="#e89637" d="M 606.5,120.5 C 622.5,120.5 638.5,120.5 654.5,120.5C 659.651,121.327 664.984,121.827 670.5,122C 638.5,122.667 606.5,122.667 574.5,122C 585.341,121.83 596.008,121.33 606.5,120.5 Z"/></g>
<g><path style="opacity:1" fill="#e79639" d="M 411.5,120.5 C 421.833,120.5 432.167,120.5 442.5,120.5C 449.004,121.437 455.671,122.27 462.5,123C 459.399,123.681 457.066,124.515 455.5,125.5C 455.049,127.75 453.715,129.084 451.5,129.5C 448.985,127.838 446.318,126.338 443.5,125C 432.312,123.354 426.979,128.188 427.5,139.5C 429.833,139.5 432.167,139.5 434.5,139.5C 434.36,141.124 435.027,142.29 436.5,143C 435.207,143.49 433.873,143.657 432.5,143.5C 427.5,143.5 422.5,143.5 417.5,143.5C 415.118,158.744 412.118,173.744 408.5,188.5C 407.659,187.991 407.159,188.657 407,190.5C 406.333,187.833 405.667,187.833 405,190.5C 404.667,187.833 404.333,185.167 404,182.5C 403.667,183.167 403.333,183.833 403,184.5C 402.768,183.263 402.268,182.263 401.5,181.5C 404.347,168.932 406.68,156.265 408.5,143.5C 403.456,143.173 398.456,143.506 393.5,144.5C 393,145.5 392.5,146.5 392,147.5C 376.697,138.794 364.03,141.794 354,156.5C 352.051,160.629 350.884,164.963 350.5,169.5C 349.833,170.5 349.167,171.5 348.5,172.5C 350.69,148.36 340.023,139.36 316.5,145.5C 313.869,144.276 311.035,143.609 308,143.5C 305.5,143.833 303,144.167 300.5,144.5C 297.606,158.315 294.606,171.982 291.5,185.5C 291.719,184.325 291.386,183.325 290.5,182.5C 289.702,184.078 289.202,185.744 289,187.5C 288.611,182.898 288.445,178.564 288.5,174.5C 286.652,176.681 286.318,179.015 287.5,181.5C 286.675,182.386 285.675,182.719 284.5,182.5C 287.074,172.65 287.907,162.65 287,152.5C 285.402,147.901 282.235,145.068 277.5,144C 272.167,143.333 266.833,143.333 261.5,144C 258.241,145.211 255.408,147.044 253,149.5C 251.062,146.894 248.562,145.061 245.5,144C 240.167,143.333 234.833,143.333 229.5,144C 227.919,144.707 226.419,145.54 225,146.5C 224.517,145.552 224.351,144.552 224.5,143.5C 219.57,143.197 214.737,143.531 210,144.5C 208.797,151.367 207.297,158.033 205.5,164.5C 205.631,163.761 205.464,163.094 205,162.5C 204.14,165.792 203.64,169.125 203.5,172.5C 202.325,172.281 201.325,172.614 200.5,173.5C 199.811,175.444 199.311,177.444 199,179.5C 198.617,178.944 198.117,178.611 197.5,178.5C 203.779,151.606 193.112,140.106 165.5,144C 153.72,148.091 147.053,156.258 145.5,168.5C 144.234,170.694 144.234,173.028 145.5,175.5C 145.192,176.308 144.692,176.975 144,177.5C 143.667,173.5 143.333,169.5 143,165.5C 141.559,163.695 141.392,161.695 142.5,159.5C 148.083,157.444 148.916,154.111 145,149.5C 139.751,144.798 133.585,142.798 126.5,143.5C 105.423,144.249 95.4231,155.249 96.5,176.5C 96.631,177.239 96.4643,177.906 96,178.5C 95.6401,176.392 94.9734,174.392 94,172.5C 93.6667,177.833 93.3333,183.167 93,188.5C 92.5,187 92,185.5 91.5,184C 91.7552,179.225 91.9218,174.391 92,169.5C 94.486,164.567 96.3193,160.067 97.5,156C 97.3594,154.045 96.526,152.545 95,151.5C 94.9616,147.437 94.1283,143.603 92.5,140C 93.7649,138.663 94.2649,137.163 94,135.5C 93.0853,136.328 92.4186,137.328 92,138.5C 91.5814,137.328 90.9147,136.328 90,135.5C 89.6012,135.728 89.4346,136.062 89.5,136.5C 87.0922,134.084 84.4256,132.084 81.5,130.5C 83.3936,129.952 85.0603,128.952 86.5,127.5C 145.83,126.5 205.163,126.167 264.5,126.5C 309.501,126.667 354.501,126.5 399.5,126C 380.5,125.667 361.5,125.333 342.5,125C 361.671,124.832 380.671,124.332 399.5,123.5C 409.839,123.666 420.172,123.5 430.5,123C 431.167,122.667 431.833,122.333 432.5,122C 425.321,121.829 418.321,121.329 411.5,120.5 Z"/></g>
<g><path style="opacity:1" fill="#e7953a" d="M 730.5,151.5 C 727.707,169.63 724.207,187.63 720,205.5C 718.786,207.049 717.286,208.215 715.5,209C 578.167,209.5 440.834,209.667 303.5,209.5C 304.179,202.265 305.679,195.265 308,188.5C 319.936,195.774 331.269,194.774 342,185.5C 345.24,181.687 347.406,177.354 348.5,172.5C 349.167,171.5 349.833,170.5 350.5,169.5C 350.479,183.978 357.646,191.978 372,193.5C 376.219,193.279 380.219,192.279 384,190.5C 388.858,192.414 394.025,193.081 399.5,192.5C 400.167,188.833 400.833,185.167 401.5,181.5C 402.268,182.263 402.768,183.263 403,184.5C 403.333,183.833 403.667,183.167 404,182.5C 404.333,185.167 404.667,187.833 405,190.5C 405.667,187.833 406.333,187.833 407,190.5C 407.159,188.657 407.659,187.991 408.5,188.5C 408.5,189.833 408.5,191.167 408.5,192.5C 413.833,192.5 419.167,192.5 424.5,192.5C 425.755,183.06 427.588,173.727 430,164.5C 433.258,157.639 438.425,155.473 445.5,158C 447.152,159.47 448.152,161.303 448.5,163.5C 446.29,173.091 444.624,182.758 443.5,192.5C 448.5,192.5 453.5,192.5 458.5,192.5C 460.266,183.167 462.1,173.834 464,164.5C 464.607,160.463 464.44,156.463 463.5,152.5C 465.298,153.463 466.632,152.796 467.5,150.5C 467.833,150.833 468.167,151.167 468.5,151.5C 467.167,154.167 467.167,156.833 468.5,159.5C 466.655,161.536 466.155,163.87 467,166.5C 467.807,162.551 468.307,162.551 468.5,166.5C 468.984,189.489 480.15,197.489 502,190.5C 506.858,192.414 512.025,193.081 517.5,192.5C 519.138,182.969 521.138,173.636 523.5,164.5C 524.75,164.577 525.583,165.244 526,166.5C 526.626,164.287 526.459,162.12 525.5,160C 525.833,159.5 526.167,159 526.5,158.5C 529.048,161.792 529.881,165.458 529,169.5C 528.667,167.833 528.333,166.167 528,164.5C 527.623,168.019 527.123,171.519 526.5,175C 526.833,175.833 527.167,176.667 527.5,177.5C 528.308,175.577 528.808,173.577 529,171.5C 529.464,172.094 529.631,172.761 529.5,173.5C 528.629,179.854 527.629,186.187 526.5,192.5C 531.833,192.5 537.167,192.5 542.5,192.5C 543.543,181.78 546.043,171.447 550,161.5C 554.298,158.432 559.131,156.765 564.5,156.5C 565.295,153.856 565.962,151.189 566.5,148.5C 567.833,148.5 569.167,148.5 570.5,148.5C 567.705,163.143 565.038,177.81 562.5,192.5C 567.762,192.805 572.928,192.471 578,191.5C 579.572,182.068 581.572,172.735 584,163.5C 588.384,156.163 594.05,154.83 601,159.5C 601.167,161.167 601.333,162.833 601.5,164.5C 600.089,173.888 598.422,183.221 596.5,192.5C 601.833,192.5 607.167,192.5 612.5,192.5C 614.038,183.475 615.705,174.475 617.5,165.5C 618.222,165.082 618.722,164.416 619,163.5C 619.333,164.5 619.667,165.5 620,166.5C 620.667,161.167 621.333,155.833 622,150.5C 622.318,152.061 623.151,153.228 624.5,154C 621.935,158.035 621.269,162.202 622.5,166.5C 622.221,186.713 632.221,195.546 652.5,193C 671.655,188.208 679.322,176.041 675.5,156.5C 676.15,156.804 676.817,157.137 677.5,157.5C 678.521,156.099 679.521,154.765 680.5,153.5C 677.846,161.722 680.18,167.889 687.5,172C 692.833,173.333 698.167,174.667 703.5,176C 704.925,177.714 704.592,179.047 702.5,180C 700.577,180.808 698.577,181.308 696.5,181.5C 691.139,180.862 685.973,179.529 681,177.5C 677.744,179.822 675.577,182.988 674.5,187C 674.833,187.833 675.167,188.667 675.5,189.5C 688.275,194.96 700.942,194.793 713.5,189C 719.118,184.071 720.951,177.905 719,170.5C 717.056,167.266 714.222,165.1 710.5,164C 706.167,163 701.833,162 697.5,161C 695.842,160.275 695.342,159.108 696,157.5C 702.904,154.776 709.737,155.109 716.5,158.5C 718.984,156.2 720.984,153.533 722.5,150.5C 724.776,150.756 725.943,152.09 726,154.5C 727.478,148.466 727.978,142.466 727.5,136.5C 729.567,141.3 730.567,146.3 730.5,151.5 Z"/></g>
<g><path style="opacity:1" fill="#e7963a" d="M 646.5,156.5 C 659.59,156.322 663.423,162.322 658,174.5C 652.525,181.216 646.525,181.883 640,176.5C 636.747,168.019 638.913,161.352 646.5,156.5 Z"/></g>
<g><path style="opacity:1" fill="#e79639" d="M 214.5,120.5 C 214.611,121.117 214.944,121.617 215.5,122C 200.667,122.167 185.833,122.333 171,122.5C 130.414,122.424 90.2477,122.091 50.5,121.5C 49.1667,121.833 47.8333,122.167 46.5,122.5C 55.8096,123.498 65.1429,123.832 74.5,123.5C 163.332,124.333 252.332,124.833 341.5,125C 315.663,125.168 289.997,125.668 264.5,126.5C 205.163,126.167 145.83,126.5 86.5,127.5C 85.0603,128.952 83.3936,129.952 81.5,130.5C 65.8061,125.401 52.3061,128.735 41,140.5C 38.2107,145.534 36.2107,150.868 35,156.5C 32.3796,168.434 30.2129,180.434 28.5,192.5C 33.5111,192.666 38.5111,192.499 43.5,192C 44.8333,187.333 46.1667,182.667 47.5,178C 55.8267,177.5 64.16,177.334 72.5,177.5C 71.5742,182.463 70.9075,187.463 70.5,192.5C 75.8333,192.5 81.1667,192.5 86.5,192.5C 89.155,179.058 91.4884,165.558 93.5,152C 93.645,146.412 92.3117,141.246 89.5,136.5C 89.4346,136.062 89.6012,135.728 90,135.5C 90.9147,136.328 91.5814,137.328 92,138.5C 92.4186,137.328 93.0853,136.328 94,135.5C 94.2649,137.163 93.7649,138.663 92.5,140C 94.1283,143.603 94.9616,147.437 95,151.5C 96.526,152.545 97.3594,154.045 97.5,156C 96.3193,160.067 94.486,164.567 92,169.5C 91.9218,174.391 91.7552,179.225 91.5,184C 92,185.5 92.5,187 93,188.5C 93.3333,183.167 93.6667,177.833 94,172.5C 94.9734,174.392 95.6401,176.392 96,178.5C 96.4643,177.906 96.631,177.239 96.5,176.5C 100.646,187.934 108.98,193.601 121.5,193.5C 130.632,193.738 138.132,190.404 144,183.5C 144.781,182.056 144.614,180.723 143.5,179.5C 140.731,177.394 137.731,175.727 134.5,174.5C 131.551,176.93 128.218,178.763 124.5,180C 115.198,180.251 111.365,175.751 113,166.5C 115.686,158.571 121.186,155.404 129.5,157C 132.001,158.673 134.334,160.507 136.5,162.5C 138.494,161.511 140.494,160.511 142.5,159.5C 141.392,161.695 141.559,163.695 143,165.5C 143.333,169.5 143.667,173.5 144,177.5C 144.692,176.975 145.192,176.308 145.5,175.5C 144.234,173.028 144.234,170.694 145.5,168.5C 146.609,187.251 156.609,195.418 175.5,193C 185.15,191.49 192.483,186.657 197.5,178.5C 198.117,178.611 198.617,178.944 199,179.5C 199.311,177.444 199.811,175.444 200.5,173.5C 201.325,172.614 202.325,172.281 203.5,172.5C 203.64,169.125 204.14,165.792 205,162.5C 205.464,163.094 205.631,163.761 205.5,164.5C 203.777,173.78 202.444,183.113 201.5,192.5C 202.5,192.5 203.5,192.5 204.5,192.5C 205.927,194.9 205.427,195.567 203,194.5C 202.25,195.126 201.416,195.626 200.5,196C 205.119,195.35 209.786,195.016 214.5,195C 217.167,196 217.167,197 214.5,198C 216.906,198.779 218.573,197.946 219.5,195.5C 220.251,196.376 220.751,197.376 221,198.5C 221.658,194.428 221.325,190.428 220,186.5C 219.86,189.043 219.194,191.377 218,193.5C 217.833,193 217.667,192.5 217.5,192C 218.348,189.23 218.681,186.397 218.5,183.5C 218.965,174.991 221.132,166.991 225,159.5C 231.725,154.554 236.558,155.887 239.5,163.5C 237.244,173.115 235.244,182.782 233.5,192.5C 238.833,192.5 244.167,192.5 249.5,192.5C 251.01,183.115 252.844,173.782 255,164.5C 257.891,157.802 262.724,155.635 269.5,158C 270.87,159.441 271.87,161.108 272.5,163C 270.313,172.768 268.313,182.602 266.5,192.5C 271.833,192.5 277.167,192.5 282.5,192.5C 282.788,189.061 283.454,185.728 284.5,182.5C 285.675,182.719 286.675,182.386 287.5,181.5C 286.318,179.015 286.652,176.681 288.5,174.5C 288.445,178.564 288.611,182.898 289,187.5C 289.202,185.744 289.702,184.078 290.5,182.5C 291.386,183.325 291.719,184.325 291.5,185.5C 290.296,193.521 288.962,201.521 287.5,209.5C 200.166,209.667 112.833,209.5 25.5,209C 23.6711,208.727 22.1711,207.893 21,206.5C 19.5167,203.298 19.1834,199.964 20,196.5C 24.4928,172.035 29.4928,147.702 35,123.5C 35.9025,122.299 37.0692,121.465 38.5,121C 97.1657,120.5 155.832,120.333 214.5,120.5 Z"/></g>
<g><path style="opacity:1" fill="#e79639" d="M 62.5,142.5 C 71.4062,140.714 76.4062,144.214 77.5,153C 76.8949,156.857 76.2283,160.69 75.5,164.5C 66.8078,164.831 58.1411,164.498 49.5,163.5C 50.1433,156.386 52.81,150.219 57.5,145C 59.3146,144.243 60.9812,143.41 62.5,142.5 Z"/></g>
<g><path style="opacity:1" fill="#e79639" d="M 319.5,156.5 C 332.632,156.417 336.465,162.417 331,174.5C 324.877,181.8 318.544,182.134 312,175.5C 309.512,167.149 312.012,160.815 319.5,156.5 Z"/></g>
<g><path style="opacity:1" fill="#e7953a" d="M 374.5,156.5 C 382.814,154.648 387.814,157.815 389.5,166C 388.812,174.184 384.479,179.017 376.5,180.5C 369.885,180.053 366.551,176.553 366.5,170C 366.757,163.974 369.424,159.474 374.5,156.5 Z"/></g>
<g><path style="opacity:1" fill="#e7953a" d="M 493.5,156.5 C 501.436,154.962 506.103,158.129 507.5,166C 506.478,173.917 502.145,178.751 494.5,180.5C 484.135,177.592 481.635,171.259 487,161.5C 488.965,159.45 491.132,157.783 493.5,156.5 Z"/></g>
<g><path style="opacity:1" fill="#e7953a" d="M 170.5,156.5 C 184.163,156.921 187.663,163.254 181,175.5C 175.406,181.535 169.572,181.868 163.5,176.5C 160.169,167.832 162.502,161.166 170.5,156.5 Z"/></g>
<g><path style="opacity:1" fill="#ea9439" d="M 218.5,183.5 C 218.681,186.397 218.348,189.23 217.5,192C 217.667,192.5 217.833,193 218,193.5C 219.194,191.377 219.86,189.043 220,186.5C 221.325,190.428 221.658,194.428 221,198.5C 220.751,197.376 220.251,196.376 219.5,195.5C 218.573,197.946 216.906,198.779 214.5,198C 217.167,197 217.167,196 214.5,195C 209.786,195.016 205.119,195.35 200.5,196C 201.416,195.626 202.25,195.126 203,194.5C 205.427,195.567 205.927,194.9 204.5,192.5C 208.5,192.5 212.5,192.5 216.5,192.5C 216.676,189.273 217.343,186.273 218.5,183.5 Z"/></g>
</svg>
